<mxfile host="app.diagrams.net" modified="2024-07-06T08:04:39.048Z" agent="Mozilla/5.0 (Windows NT 10.0; Win64; x64) AppleWebKit/537.36 (KHTML, like Gecko) Chrome/126.0.0.0 Safari/537.36 Edg/126.0.0.0" version="24.6.4" etag="hURxgnrQviCB2JZ1Z4iG" type="github">
  <diagram name="Page-1" id="r6u98_HJAU4VM1IEi2fz">
    <mxGraphModel>
      <root>
        <mxCell id="0" />
        <mxCell id="1" parent="0" />
      </root>
    </mxGraphModel>
  </diagram>
</mxfile>
